<?xml version="1.0" standalone="no"?>
<!DOCTYPE svg PUBLIC "-//W3C//DTD SVG 20010904//EN"
 "http://www.w3.org/TR/2001/REC-SVG-20010904/DTD/svg10.dtd">
<svg version="1.0" xmlns="http://www.w3.org/2000/svg"
 width="500.000000pt" height="500.000000pt" viewBox="0 0 500.000000 500.000000"
 preserveAspectRatio="xMidYMid meet">

<g transform="translate(0.000000,500.000000) scale(0.100000,-0.100000)"
fill="#000000" stroke="none">
<path d="M2345 4094 c-247 -29 -400 -71 -585 -162 -162 -79 -306 -179 -428
-296 -201 -194 -305 -345 -396 -574 -148 -377 -149 -761 -2 -1136 128 -324
405 -654 706 -840 311 -192 682 -288 990 -256 493 50 937 307 1248 723 220
294 324 622 309 982 -17 447 -240 876 -617 1187 -185 153 -468 289 -705 338
-164 35 -387 49 -520 34z m313 -444 c379 -41 686 -256 886 -621 111 -204 149
-452 111 -729 -20 -138 -45 -220 -102 -335 -163 -325 -416 -541 -726 -619
-224 -57 -398 -56 -626 4 -430 113 -777 504 -841 949 -18 120 -8 373 19 473
28 107 72 214 122 295 23 37 48 79 55 93 21 39 133 166 194 219 118 103 296
200 440 240 136 37 303 48 468 31z"/>
<path d="M2395 3540 c-233 -20 -437 -115 -617 -288 -377 -362 -436 -928 -143
-1372 24 -36 81 -103 127 -150 246 -252 584 -362 935 -305 197 32 375 121 520
259 110 105 171 183 223 286 171 341 173 691 3 1022 -164 319 -460 515 -830
547 -65 6 -120 10 -123 9 -3 0 -45 -4 -95 -8z m248 -155 c149 -31 288 -123
439 -288 86 -95 188 -225 188 -240 0 -2 -36 4 -80 15 -45 12 -83 18 -86 15 -3
-3 -8 -86 -10 -184 -3 -98 -7 -206 -10 -240 l-6 -63 -46 0 c-63 -1 -106 -18
-183 -72 -121 -86 -214 -118 -341 -118 -155 0 -299 62 -419 180 -114 112 -159
218 -167 389 -9 205 55 352 207 478 150 124 327 168 514 128z"/>
</g>
</svg>
